<?xml version="1.0" encoding="iso-8859-1"?>
<!-- Generator: Adobe Illustrator 19.0.0, SVG Export Plug-In . SVG Version: 6.00 Build 0)  -->
<svg version="1.1" id="Layer_1" xmlns="http://www.w3.org/2000/svg" xmlns:xlink="http://www.w3.org/1999/xlink" x="0px" y="0px"
	 viewBox="0 0 512.003 512.003" style="enable-background:new 0 0 512.003 512.003;" xml:space="preserve">
<path style="fill:#97B05F;" d="M241.334,402.237h-31.14c-4.771,0-8.638-3.868-8.638-8.638v-59.908h48.416v59.908
	C249.972,398.369,246.105,402.237,241.334,402.237z"/>
<path style="fill:#BDD186;" d="M249.972,374.801L249.972,374.801v18.798c0,4.771-3.868,8.638-8.638,8.638h-13.398v-5.401
	C227.937,384.666,237.802,374.801,249.972,374.801z"/>
<path style="fill:#F8E9B4;" d="M227.427,367.596H65.13c-20.505,0-37.126-16.622-37.126-37.126l0,0h236.55l0,0
	C264.554,350.973,247.932,367.596,227.427,367.596z"/>
<path style="opacity:0.1;enable-background:new    ;" d="M148.588,330.469v15.207h112.707c2.088-4.643,3.259-9.787,3.259-15.206l0,0
	H148.588V330.469z"/>
<path style="fill:#97B05F;" d="M97.716,402.237h-31.14c-4.771,0-8.638-3.868-8.638-8.638v-59.908h48.416v59.908
	C106.354,398.369,102.486,402.237,97.716,402.237z"/>
<path style="fill:#BDD186;" d="M106.354,374.801L106.354,374.801v18.798c0,4.771-3.868,8.638-8.638,8.638H84.318v-5.401
	C84.318,384.666,94.183,374.801,106.354,374.801z"/>
<rect x="57.933" y="333.689" style="opacity:0.1;enable-background:new    ;" width="48.416" height="22.513"/>
<path style="fill:#97B05F;" d="M175.1,402.237h-31.14c-4.771,0-8.638-3.868-8.638-8.638v-59.908h48.416v59.908
	C183.739,398.369,179.871,402.237,175.1,402.237z"/>
<path style="fill:#BDD186;" d="M183.739,374.801L183.739,374.801v18.798c0,4.771-3.868,8.638-8.638,8.638h-13.398v-5.401
	C161.703,384.666,171.569,374.801,183.739,374.801z"/>
<path style="opacity:0.1;enable-background:new    ;" d="M135.322,333.691v22.513h14.349c12.207,0,23.972-3.463,34.067-9.67v-12.843
	H135.322z"/>
<path style="fill:#97B05F;" d="M264.554,330.469H29.356l13.033-54.294c6.604-27.51,31.206-46.905,59.498-46.905h90.137
	c28.291,0,52.894,19.395,59.498,46.905L264.554,330.469z"/>
<path style="opacity:0.15;enable-background:new    ;" d="M170.008,256.409l15.668-27.138h-18.234l-11.11,19.243H120.39
	l-11.11-19.243h-7.395c-3.511,0-6.964,0.3-10.334,0.876l15.163,26.263l-40.48,70.113l6.838,3.948h9.117l38.201-66.165h35.943
	l38.2,66.165h9.117l6.838-3.948L170.008,256.409z"/>
<path style="fill:#BDD186;" d="M149.671,345.676H24.287c-8.398,0-15.207-6.808-15.207-15.206s6.808-15.207,15.207-15.207h125.384
	c12.346,0,23.846-6.645,30.011-17.342c10.661-18.497,30.547-29.988,51.898-29.988h28.412c8.398,0,15.206,6.808,15.206,15.206
	s-6.808,15.207-15.206,15.207H231.58c-10.51,0-20.299,5.657-25.547,14.762C194.454,333.196,172.857,345.676,149.671,345.676z"/>
<path style="fill:#97B05F;" d="M390.672,109.766h-32.85c-62.98,0-114.035,51.055-114.035,114.035v62.532
	c0,6.636-5.379,12.014-12.014,12.013l0,0c-10.532,0-20.42,5.473-25.654,14.612c-3.87,6.757-8.877,12.651-14.69,17.511h90.361
	c11.323,0,21.27-5.864,26.991-14.715h102.767c51.117,0,92.557-41.439,92.557-92.557l0,0
	C504.103,160.551,453.319,109.766,390.672,109.766z"/>
<path style="opacity:0.1;enable-background:new    ;" d="M231.774,298.346c-10.532,0-20.42,5.473-25.654,14.612
	c-3.87,6.757-8.877,12.651-14.69,17.511h11.976c8.097-5.451,15-12.726,20.02-21.433c2.726-4.729,6.683-8.516,11.323-11.075
	C233.794,298.203,232.801,298.346,231.774,298.346L231.774,298.346z"/>
<path d="M390.672,101.87h-32.85c-67.233,0-121.931,54.698-121.931,121.931v13.249c-12.165-10.031-27.544-15.677-43.868-15.677
	h-90.137c-32.066,0-59.69,21.777-67.175,52.959l-7.929,33.034h-2.494c-12.739,0-23.102,10.364-23.102,23.102
	c0,8.562,4.686,16.046,11.625,20.036c-4.448,3.187-8.351,7.154-11.455,11.749c-2.441,3.614-1.491,8.522,2.122,10.964
	c1.355,0.916,2.892,1.354,4.413,1.354c2.535,0,5.024-1.218,6.55-3.476c3.842-5.686,9.524-9.917,15.97-12.008
	c5.165,6.262,11.946,11.044,19.633,13.782v20.729c0,9.117,7.417,16.535,16.535,16.535h31.14c9.117,0,16.534-7.417,16.534-16.535
	V375.49h13.178v18.108c0,9.117,7.417,16.535,16.534,16.535h31.14c9.117,0,16.534-7.417,16.534-16.535V375.49h2.027v18.108
	c0,9.117,7.417,16.535,16.535,16.535h31.14c9.117,0,16.534-7.417,16.534-16.535v-29.994c7.114-6.541,12.114-15.337,13.875-25.241
	h10.047c12.14,0,23.433-5.428,30.998-14.716h98.76c55.39,0,100.453-45.063,100.453-100.453
	C511.999,156.297,457.572,101.87,390.672,101.87z M50.067,278.018c5.773-24.054,27.083-40.853,51.82-40.853h90.137
	c17.594,0,33.751,8.514,43.724,22.872h-4.167c-24.164,0-46.672,13.006-58.737,33.94c-4.761,8.259-13.64,13.389-23.172,13.389H43.022
	L50.067,278.018z M50.042,355.494c-0.971-0.586-1.903-1.229-2.798-1.922h2.798V355.494z M98.458,393.599
	c0,0.41-0.333,0.743-0.742,0.743h-31.14c-0.41,0-0.743-0.333-0.743-0.743v-40.026h32.624v40.026H98.458z M127.427,359.7h-13.178
	v-6.128h13.178V359.7z M175.842,393.599c0,0.41-0.333,0.743-0.742,0.743h-31.14c-0.41,0-0.742-0.333-0.742-0.743v-40.026h6.454
	c8.991,0,17.86-1.7,26.171-4.906V393.599z M188.292,322.725c-0.019,0.017-0.038,0.034-0.055,0.049
	c-0.614,0.56-1.238,1.105-1.872,1.635c-10.314,8.622-23.346,13.37-36.693,13.37H24.287c-4.031,0-7.31-3.279-7.31-7.312
	c0-4.031,3.279-7.31,7.31-7.31h125.385c15.16,0,29.281-8.159,36.852-21.294c9.256-16.059,26.519-26.035,45.056-26.035h4.312v10.504
	c0,1.1-0.428,2.134-1.205,2.912c-0.778,0.778-1.812,1.205-2.912,1.205h-0.194c-4.822,0-9.55,0.929-13.999,2.738
	c-0.064,0.024-0.128,0.051-0.184,0.074c-0.322,0.132-0.638,0.274-0.954,0.418l-0.176,0.08c-7.248,3.233-13.127,8.515-16.999,15.274
	c-0.392,0.684-0.8,1.356-1.21,2.006l-0.331,0.512c-0.323,0.501-0.653,0.997-0.996,1.494l-0.341,0.492
	c-0.912,1.291-1.874,2.541-2.852,3.708l-0.207,0.244c-0.466,0.551-0.942,1.092-1.44,1.636l-0.158,0.174
	C190.628,320.496,189.466,321.652,188.292,322.725z M242.076,393.599c0,0.41-0.333,0.743-0.742,0.743h-31.14
	c-0.41,0-0.743-0.333-0.743-0.743v-18.108h17.976c5.128,0,10.053-0.874,14.648-2.46v20.568H242.076z M227.428,359.7h-35.794v-19.452
	c0.865-0.609,1.718-1.236,2.559-1.882h61.373C252.111,350.658,240.809,359.7,227.428,359.7z M411.547,307.858H308.779
	c-2.679,0-5.178,1.359-6.631,3.61c-4.494,6.954-12.105,11.105-20.36,11.105H209.34l0.386-0.557c0.433-0.626,0.856-1.261,1.273-1.909
	l0.412-0.639c0.535-0.85,1.057-1.71,1.558-2.586c2.196-3.833,5.56-6.842,9.755-8.713l0.264-0.12
	c0.121-0.055,0.241-0.111,0.315-0.144c0.051-0.019,0.1-0.039,0.143-0.056c2.613-1.068,5.349-1.609,8.133-1.609h0.195
	c5.318,0,10.317-2.071,14.078-5.831c3.761-3.76,5.832-8.76,5.832-14.079V223.8c0-58.526,47.614-106.14,106.14-106.14h32.85
	c58.192,0,105.535,47.343,105.535,105.535C496.207,269.879,458.229,307.858,411.547,307.858z M349.415,190.179
	c-4.361,0-7.896,3.535-7.896,7.896v11.758c0,4.361,3.535,7.896,7.896,7.896s7.896-3.535,7.896-7.896v-11.758
	C357.311,193.714,353.776,190.179,349.415,190.179z M461.012,190.179c-4.361,0-7.896,3.535-7.896,7.896v11.758
	c0,4.361,3.535,7.896,7.896,7.896c4.361,0,7.896-3.535,7.896-7.896v-11.758C468.908,193.714,465.373,190.179,461.012,190.179z
	 M431.571,214.781c-4.361,0-7.896,3.535-7.896,7.896c0,2.913-2.37,5.283-5.283,5.283s-5.283-2.37-5.283-5.283
	c0-4.361-3.535-7.896-7.896-7.896s-7.896,3.535-7.896,7.896c0,2.913-2.37,5.283-5.284,5.283s-5.283-2.37-5.283-5.283
	c0-4.361-3.535-7.896-7.896-7.896s-7.896,3.535-7.896,7.896c0,11.621,9.454,21.074,21.074,21.074c4.983,0,9.568-1.738,13.18-4.641
	c3.611,2.901,8.196,4.641,13.179,4.641c11.621,0,21.074-9.454,21.074-21.074C439.467,218.317,435.932,214.781,431.571,214.781z"/>
<g>
</g>
<g>
</g>
<g>
</g>
<g>
</g>
<g>
</g>
<g>
</g>
<g>
</g>
<g>
</g>
<g>
</g>
<g>
</g>
<g>
</g>
<g>
</g>
<g>
</g>
<g>
</g>
<g>
</g>
</svg>
